<?xml version="1.0" encoding="utf-8"?>
<!-- Generator: Adobe Illustrator 28.0.0, SVG Export Plug-In . SVG Version: 6.00 Build 0)  -->
<svg version="1.1" id="Capa_1" xmlns="http://www.w3.org/2000/svg" xmlns:xlink="http://www.w3.org/1999/xlink" x="0px" y="0px"
	 viewBox="0 0 2950 1527" style="enable-background:new 0 0 2950 1527;" xml:space="preserve">
<style type="text/css">
	.st0{opacity:0.93;fill:#FFFFFF;}
	.st1{opacity:0.93;fill:#00EAFF;}
</style>
<g>
	<path class="st0" d="M173.66,893.3h-60.44V598.44h60.44v117.59h85.51V598.44h60.44V893.3h-60.44V775h-85.51V893.3z"/>
	<path class="st0" d="M754.88,788.58c0,72.91-36,110.08-103.51,110.08c-67.51,0-103.51-37.17-103.51-110.08V598.44h60.44v170.48
		c0,49.32,13.5,63.62,43.08,63.62c29.58,0,43.08-14.3,43.08-63.62V598.44h60.44V788.58z"/>
	<path class="st1" d="M950.97,598.44h186.45v58.97h-63.01V893.3h-60.44V657.42h-63.01V598.44z"/>
	<path class="st1" d="M1463.71,593.08c73.62,0,133.41,66.48,133.41,152.61c0,86.13-57.22,152.97-133.41,152.97
		c-78.44,0-133.73-66.84-133.73-152.97C1329.97,659.56,1390.73,593.08,1463.71,593.08z M1463.71,833.62
		c48.22,0,68.15-43.96,68.15-87.92s-21.22-87.92-68.15-87.92c-46.61,0-68.47,43.96-68.47,87.92S1414.2,833.62,1463.71,833.62z"/>
	<path class="st1" d="M1913.44,598.44c51.76,0,90.66,29.66,90.66,90.78c0,60.76-38.9,94.71-90.66,94.71h-36.33V893.3h-60.44V598.44
		H1913.44z M1894.15,730.33c23.79,0,46.29-8.94,46.29-38.96c0-30.38-22.5-39.31-46.29-39.31h-17.04v78.27H1894.15z"/>
	<path class="st0" d="M2284.09,893.3h-60.44V598.44h60.44V893.3z"/>
	<path class="st0" d="M2757.29,893.3h-64.94l-19.61-58.97H2571.8l-19.61,58.97h-64.94l107.05-294.86h55.94L2757.29,893.3z
		 M2622.59,689.58h-0.64l-29.58,85.78h59.79L2622.59,689.58z"/>
</g>
</svg>
