<?xml version="1.0" encoding="utf-8"?>
<!-- Generator: Adobe Illustrator 28.0.0, SVG Export Plug-In . SVG Version: 6.00 Build 0)  -->
<svg version="1.1" id="Layer_1" xmlns="http://www.w3.org/2000/svg" xmlns:xlink="http://www.w3.org/1999/xlink" x="0px" y="0px"
	 viewBox="0 0 1924 1077" style="enable-background:new 0 0 1924 1077;" xml:space="preserve">
<style type="text/css">
	.st0{fill:#1D1D1B;}
	.st1{fill:#00FFFF;}
</style>
<g>
	<path class="st0" d="M136.38,632.51H88.62V422.96h47.75v83.57h67.56v-83.57h47.75v209.55h-47.75v-84.07h-67.56V632.51z"/>
	<path class="st0" d="M542.26,558.09c0,51.82-28.45,78.23-81.79,78.23s-81.79-26.42-81.79-78.23V422.96h47.75v121.16
		c0,35.05,10.67,45.21,34.04,45.21s34.04-10.16,34.04-45.21V422.96h47.75V558.09z"/>
	<path class="st1" d="M643.87,422.96h147.32v41.91H741.4v167.64h-47.75V464.87h-49.78V422.96z"/>
	<path class="st1" d="M995.65,419.15c58.17,0,105.41,47.24,105.41,108.46c0,61.21-45.21,108.71-105.41,108.71
		c-61.98,0-105.66-47.5-105.66-108.71C889.99,466.4,938,419.15,995.65,419.15z M995.65,590.09c38.1,0,53.85-31.24,53.85-62.48
		s-16.76-62.48-53.85-62.48c-36.83,0-54.1,31.24-54.1,62.48S956.54,590.09,995.65,590.09z"/>
	<path class="st1" d="M1297.66,422.96c40.89,0,71.63,21.08,71.63,64.52c0,43.18-30.73,67.31-71.63,67.31h-28.7v77.72h-47.75V422.96
		H1297.66z M1282.42,516.69c18.8,0,36.58-6.35,36.58-27.69c0-21.59-17.78-27.94-36.58-27.94h-13.46v55.63H1282.42z"/>
	<path class="st0" d="M1537.18,632.51h-47.75V422.96h47.75V632.51z"/>
	<path class="st0" d="M1857.72,632.51h-51.31l-15.49-41.91h-79.75l-15.49,41.91h-51.31l84.58-209.55h44.2L1857.72,632.51z
		 M1751.3,487.73h-0.51l-23.37,60.96h47.24L1751.3,487.73z"/>
</g>
</svg>
